<svg xmlns:dc="http://purl.org/dc/elements/1.1/"
   xmlns:cc="http://creativecommons.org/ns#"
   xmlns:rdf="http://www.w3.org/1999/02/22-rdf-syntax-ns#"
   xmlns:svg="http://www.w3.org/2000/svg"
   xmlns="http://www.w3.org/2000/svg"
   id="preview" style="display:inline; null" width="610" height="610" xunitlength="12" yunitlength="12" xmin="-20" xmax="20" ymin="-20" ymax="20" ox="280" oy="280"><circle id="pointerpos" cx="0" cy="0" r="0.5" fill="red"></circle><defs><link href="http://cdnjs.cloudflare.com/ajax/libs/KaTeX/0.2.0/katex.min.css" type="text/css" rel="stylesheet"></link></defs><rect x="0" y="0" width="610" height="610" style="stroke-width:1;fill:white"></rect><path d=" M280,90 280,570 M340,90 340,570 M400,90 400,570 M460,90 460,570 M520,90 520,570 M220,90 220,570 M160,90 160,570 M100,90 100,570 M40,90 40,570 M40,330 520,330 M40,390 520,390 M40,450 520,450 M40,510 520,510 M40,570 520,570 M40,270 520,270 M40,210 520,210 M40,150 520,150 M40,90 520,90" stroke-width="1" stroke="grey" fill="none"></path><path d="M 534.64 322.68 L 556.5999999999999 330 L 534.64 337.32 L 538.3 330 z" stroke-width="1" stroke="black" fill="black"></path><path d="M 272.68 75.36 L 280 53.400000000000006 L 287.32 75.36 L 280 71.7 z" stroke-width="1" stroke="black" fill="black"></path><path d="M21.7,330 538.3,330 M280,71.7 280,588.3 M280,339.25 280,320.75 M340,339.25 340,320.75 M400,339.25 400,320.75 M460,339.25 460,320.75 M520,339.25 520,320.75 M220,339.25 220,320.75 M160,339.25 160,320.75 M100,339.25 100,320.75 M40,339.25 40,320.75 M289.25,330 270.75,330 M289.25,390 270.75,390 M289.25,450 270.75,450 M289.25,510 270.75,510 M289.25,570 270.75,570 M289.25,270 270.75,270 M289.25,210 270.75,210 M289.25,150 270.75,150 M289.25,90 270.75,90" stroke-width="2" stroke="black" fill="none"></path><text id="null" x="340" y="369" font-style="" font-family="KaTeX_Main" font-size="37" font-weight="normal" text-anchor="middle" fill="black" stroke-width="0px">5</text><text id="null" x="400" y="369" font-style="" font-family="KaTeX_Main" font-size="37" font-weight="normal" text-anchor="middle" fill="black" stroke-width="0px">10</text><text id="null" x="460" y="369" font-style="" font-family="KaTeX_Main" font-size="37" font-weight="normal" text-anchor="middle" fill="black" stroke-width="0px">15</text><text id="null" x="520" y="369" font-style="" font-family="KaTeX_Main" font-size="37" font-weight="normal" text-anchor="middle" fill="black" stroke-width="0px">20</text><text id="null" x="220" y="369" font-style="" font-family="KaTeX_Main" font-size="37" font-weight="normal" text-anchor="middle" fill="black" stroke-width="0px">-5</text><text id="null" x="160" y="369" font-style="" font-family="KaTeX_Main" font-size="37" font-weight="normal" text-anchor="middle" fill="black" stroke-width="0px">-10</text><text id="null" x="100" y="369" font-style="" font-family="KaTeX_Main" font-size="37" font-weight="normal" text-anchor="middle" fill="black" stroke-width="0px">-15</text><text id="null" x="40" y="369" font-style="" font-family="KaTeX_Main" font-size="37" font-weight="normal" text-anchor="middle" fill="black" stroke-width="0px">-20</text><text id="null" x="265.6666666666667" y="282.3333333333333" font-style="" font-family="KaTeX_Main" font-size="37" font-weight="normal" text-anchor="end" fill="black" stroke-width="0px">5</text><text id="null" x="265.6666666666667" y="222.33333333333334" font-style="" font-family="KaTeX_Main" font-size="37" font-weight="normal" text-anchor="end" fill="black" stroke-width="0px">10</text><text id="null" x="265.6666666666667" y="162.33333333333334" font-style="" font-family="KaTeX_Main" font-size="37" font-weight="normal" text-anchor="end" fill="black" stroke-width="0px">15</text><text id="null" x="265.6666666666667" y="102.33333333333333" font-style="" font-family="KaTeX_Main" font-size="37" font-weight="normal" text-anchor="end" fill="black" stroke-width="0px">20</text><text id="null" x="265.6666666666667" y="402.3333333333333" font-style="" font-family="KaTeX_Main" font-size="37" font-weight="normal" text-anchor="end" fill="black" stroke-width="0px">-5</text><text id="null" x="265.6666666666667" y="462.3333333333333" font-style="" font-family="KaTeX_Main" font-size="37" font-weight="normal" text-anchor="end" fill="black" stroke-width="0px">-10</text><text id="null" x="265.6666666666667" y="522.3333333333334" font-style="" font-family="KaTeX_Main" font-size="37" font-weight="normal" text-anchor="end" fill="black" stroke-width="0px">-15</text><text id="null" x="265.6666666666667" y="582.3333333333334" font-style="" font-family="KaTeX_Main" font-size="37" font-weight="normal" text-anchor="end" fill="black" stroke-width="0px">-20</text><text id="null" x="280" y="39.06666666666664" font-style="italic" font-family="KaTeX_Main" font-size="37" font-weight="normal" text-anchor="middle" fill="black" stroke-width="0px">y</text><text id="null" x="570.9333333333334" y="342.3333333333333" font-style="italic" font-family="KaTeX_Main" font-size="37" font-weight="normal" text-anchor="start" fill="black" stroke-width="0px">x</text><path id="null" d="M40,534 40.7999992,533.2000008 41.59999840000003,532.4000016 42.39999760000006,531.6000024 43.199996800000065,530.8000032 43.99999600000007,530.000004 44.7999952000001,529.2000047999999 45.59999440000013,528.4000055999999 46.39999360000013,527.6000063999999 47.19999280000013,526.8000071999999 47.99999200000016,526.0000079999999 48.79999120000019,525.2000087999998 49.599990400000195,524.4000095999997 50.3999896000002,523.6000103999997 51.19998880000023,522.8000111999997 51.99998800000026,522.0000119999997 52.79998720000026,521.2000127999997 53.59998640000026,520.4000135999997 54.39998560000029,519.6000143999997 55.19998480000032,518.8000151999997 55.999984000000325,518.0000159999997 56.79998320000033,517.2000167999997 57.59998240000036,516.4000175999996 58.39998160000039,515.6000183999996 59.19998080000039,514.8000191999996 59.99998000000039,514.0000199999996 60.79997920000042,513.2000207999996 61.59997840000045,512.4000215999995 62.399977600000454,511.6000223999995 63.19997680000046,510.8000231999995 63.99997600000049,510.0000239999995 64.79997520000052,509.2000247999995 65.59997440000052,508.4000255999995 66.39997360000052,507.6000263999995 67.19997280000055,506.8000271999995 67.99997200000058,506.0000279999995 68.79997120000058,505.2000287999995 69.59997040000059,504.40002959999947 70.39996960000062,503.60003039999935 71.19996880000065,502.80003119999935 71.99996800000065,502.00003199999935 72.79996720000065,501.20003279999935 73.59996640000068,500.40003359999935 74.39996560000071,499.60003439999923 75.19996480000071,498.80003519999923 75.99996400000072,498.0000359999992 76.79996320000075,497.2000367999992 77.59996240000078,496.4000375999992 78.39996160000078,495.6000383999992 79.19996080000078,494.8000391999992 79.99996000000081,494.0000399999992 80.79995920000084,493.2000407999992 81.59995840000084,492.4000415999992 82.39995760000085,491.6000423999992 83.19995680000088,490.8000431999991 83.9999560000009,490.0000439999991 84.79995520000091,489.2000447999991 85.59995440000091,488.4000455999991 86.39995360000094,487.6000463999991 87.19995280000097,486.80004719999897 87.99995200000097,486.00004799999897 88.79995120000098,485.20004879999897 89.59995040000098,484.40004959999897 90.39994960000095,483.6000503999991 91.19994880000095,482.8000511999991 91.99994800000096,482.0000519999991 92.79994720000093,481.20005279999907 93.59994640000093,480.40005359999907 94.39994560000093,479.60005439999907 95.19994480000094,478.80005519999906 95.99994400000094,478.00005599999906 96.79994320000091,477.20005679999906 97.59994240000091,476.40005759999906 98.39994160000091,475.60005839999906 99.19994080000089,474.80005919999917 99.99994000000089,474.00005999999917 100.79993920000089,473.20006079999916 101.5999384000009,472.40006159999916 102.3999376000009,471.60006239999916 103.19993680000087,470.80006319999916 103.99993600000087,470.00006399999916 104.79993520000087,469.20006479999915 105.59993440000085,468.40006559999915 106.39993360000085,467.60006639999915 107.19993280000085,466.80006719999915 107.99993200000085,466.00006799999915 108.79993120000086,465.20006879999914 109.59993040000083,464.40006959999914 110.39992960000083,463.60007039999914 111.19992880000083,462.80007119999914 111.9999280000008,462.00007199999914 112.79992720000081,461.20007279999913 113.59992640000081,460.40007359999913 114.39992560000081,459.60007439999913 115.19992480000082,458.8000751999991 115.99992400000079,458.00007599999924 116.79992320000079,457.20007679999924 117.59992240000079,456.40007759999924 118.39992160000077,455.60007839999923 119.19992080000077,454.80007919999923 119.99992000000077,454.00007999999923 120.79991920000077,453.2000807999992 121.59991840000077,452.4000815999992 122.39991760000075,451.6000823999992 123.19991680000075,450.8000831999992 123.99991600000075,450.0000839999992 124.79991520000073,449.2000847999992 125.59991440000073,448.40008559999933 126.39991360000073,447.6000863999993 127.19991280000073,446.8000871999993 127.99991200000073,446.0000879999993 128.7999112000007,445.2000887999993 129.5999104000007,444.4000895999993 130.3999096000007,443.6000903999993 131.19990880000069,442.8000911999993 131.9999080000007,442.0000919999993 132.7999072000007,441.2000927999993 133.5999064000007,440.4000935999993 134.3999056000007,439.6000943999993 135.19990480000067,438.8000951999993 135.99990400000067,438.0000959999993 136.79990320000067,437.2000967999993 137.59990240000064,436.4000975999993 138.39990160000065,435.6000983999993 139.19990080000065,434.8000991999993 139.99990000000065,434.0000999999993 140.79989920000065,433.2001007999994 141.59989840000063,432.4001015999994 142.39989760000063,431.6001023999994 143.19989680000063,430.8001031999994 143.9998960000006,430.0001039999994 144.7998952000006,429.2001047999994 145.5998944000006,428.4001055999994 146.3998936000006,427.6001063999994 147.1998928000006,426.8001071999994 147.99989200000059,426.0001079999994 148.7998912000006,425.2001087999994 149.5998904000006,424.4001095999994 150.39988960000056,423.6001103999994 151.19988880000056,422.8001111999995 151.99988800000057,422.0001119999995 152.79988720000057,421.2001127999995 153.59988640000057,420.4001135999995 154.39988560000054,419.6001143999995 155.19988480000055,418.8001151999995 155.99988400000055,418.0001159999995 156.79988320000052,417.2001167999995 157.59988240000052,416.4001175999995 158.39988160000053,415.6001183999995 159.19988080000053,414.8001191999995 159.99988000000053,414.00011999999947 160.7998792000005,413.20012079999947 161.5998784000005,412.40012159999947 162.3998776000005,411.60012239999946 163.19987680000048,410.80012319999946 163.99987600000048,410.00012399999946 164.79987520000049,409.20012479999946 165.5998744000005,408.40012559999946 166.3998736000005,407.60012639999957 167.19987280000046,406.80012719999957 167.99987200000047,406.00012799999956 168.79987120000047,405.20012879999956 169.59987040000044,404.40012959999956 170.39986960000044,403.60013039999956 171.19986880000044,402.80013119999956 171.99986800000045,402.00013199999955 172.79986720000045,401.20013279999955 173.59986640000042,400.40013359999955 174.39986560000042,399.60013439999955 175.19986480000043,398.80013519999954 175.9998640000004,398.00013599999954 176.7998632000004,397.20013679999965 177.5998624000004,396.40013759999965 178.3998616000004,395.60013839999965 179.1998608000004,394.80013919999965 179.99986000000038,394.00013999999965 180.79985920000038,393.20014079999964 181.5998584000004,392.40014159999964 182.39985760000036,391.60014239999964 183.19985680000036,390.80014319999964 183.99985600000036,390.00014399999964 184.79985520000037,389.20014479999963 185.59985440000037,388.40014559999963 186.39985360000034,387.60014639999963 187.19985280000034,386.8001471999996 187.99985200000035,386.0001479999996 188.79985120000032,385.2001487999996 189.59985040000032,384.4001495999996 190.39984960000032,383.6001503999996 191.19984880000032,382.80015119999973 191.99984800000033,382.00015199999973 192.7998472000003,381.2001527999997 193.5998464000003,380.4001535999997 194.3998456000003,379.6001543999997 195.19984480000028,378.8001551999997 195.99984400000028,378.0001559999997 196.79984320000028,377.2001567999997 197.59984240000028,376.4001575999997 198.3998416000003,375.6001583999997 199.19984080000026,374.8001591999997 199.99984000000026,374.0001599999997 200.79983920000026,373.2001607999997 201.59983840000024,372.4001615999997 202.39983760000024,371.6001623999997 203.19983680000024,370.8001631999998 203.99983600000024,370.0001639999998 204.79983520000025,369.2001647999998 205.59983440000022,368.4001655999998 206.39983360000022,367.6001663999998 207.19983280000022,366.8001671999998 207.9998320000002,366.0001679999998 208.7998312000002,365.2001687999998 209.5998304000002,364.4001695999998 210.3998296000002,363.6001703999998 211.1998288000002,362.8001711999998 211.99982800000018,362.0001719999998 212.79982720000018,361.2001727999998 213.59982640000018,360.4001735999998 214.39982560000016,359.6001743999998 215.19982480000016,358.8001751999998 215.99982400000016,358.0001759999998 216.79982320000016,357.2001767999999 217.59982240000016,356.4001775999999 218.39982160000014,355.6001783999999 219.19982080000014,354.8001791999999 219.99982000000014,354.0001799999999 220.79981920000012,353.2001807999999 221.59981840000012,352.4001815999999 222.39981760000012,351.6001823999999 223.19981680000012,350.8001831999999 223.99981600000012,350.0001839999999 224.7998152000001,349.2001847999999 225.5998144000001,348.4001855999999 226.3998136000001,347.60018639999987 227.19981280000007,346.80018719999987 227.99981200000008,346.00018799999987 228.79981120000008,345.2001888 229.59981040000008,344.4001896 230.39980960000008,343.6001904 231.19980880000006,342.8001912 231.99980800000006,342.00019199999997 232.79980720000006,341.20019279999997 233.59980640000006,340.40019359999997 234.39980560000006,339.60019439999996 235.19980480000007,338.80019519999996 235.99980400000007,338.00019599999996 236.79980320000004,337.20019679999996 237.59980240000004,336.40019759999996 238.39980160000005,335.60019839999995 239.19980080000005,334.80019919999995 239.99980000000005,334.00019999999995 240.79979920000005,333.20020079999995 241.59979840000005,332.40020159999995 242.39979760000006,331.60020239999994 243.19979680000006,330.80020319999994 243.99979600000006,330.00020399999994 244.79979520000006,329.20020479999994 245.59979440000006,328.40020559999994 246.39979360000007,327.60020639999993 247.19979280000007,326.80020719999993 247.99979200000007,326.00020799999993 248.79979120000007,325.2002087999999 249.59979040000007,324.4002095999999 250.39978960000008,323.6002103999999 251.19978880000008,322.8002111999999 251.99978800000008,322.0002119999999 252.79978720000005,321.2002127999999 253.59978640000006,320.4002135999999 254.39978560000006,319.6002143999999 255.19978480000006,318.8002151999999 255.99978400000006,318.0002159999999 256.7997832000001,317.2002167999999 257.5997824000001,316.4002175999999 258.3997816000001,315.6002183999999 259.19978080000004,314.8002191999999 259.99978000000004,314.0002199999999 260.79977920000005,313.2002207999999 261.59977840000005,312.4002215999999 262.39977760000005,311.6002223999999 263.19977680000005,310.8002231999999 263.99977600000005,310.0002239999999 264.79977520000006,309.2002247999999 265.59977440000006,308.4002255999999 266.39977360000006,307.6002263999999 267.19977280000006,306.8002271999999 267.99977200000006,306.0002279999999 268.79977120000007,305.2002287999999 269.59977040000007,304.4002295999999 270.39976960000007,303.6002303999999 271.1997688000001,302.80023119999987 271.9997680000001,302.000232 272.7997672000001,301.2002328 273.5997664000001,300.4002336 274.3997656000001,299.6002344 275.1997648000001,298.8002352 275.9997640000001,298.000236 276.7997632000001,297.20023679999997 277.5997624000001,296.40023759999997 278.3997616000001,295.60023839999997 279.1997608000001,294.80023919999996 279.9997600000001,294.00023999999996 280.7997592000001,293.20024079999996 281.5997584000001,292.40024159999996 282.3997576000001,291.60024239999996 283.19975680000005,290.80024319999995 283.99975600000005,290.00024399999995 284.79975520000005,289.20024479999995 285.59975440000005,288.40024559999995 286.39975360000005,287.60024639999995 287.19975280000006,286.80024719999994 287.99975200000006,286.00024799999994 288.79975120000006,285.20024879999994 289.59975040000006,284.40024959999994 290.39974960000006,283.60025039999994 291.19974880000007,282.80025119999993 291.99974800000007,282.00025199999993 292.79974720000007,281.20025279999993 293.5997464000001,280.4002535999999 294.3997456000001,279.6002543999999 295.1997448000001,278.8002551999999 295.9997440000001,278.0002559999999 296.7997432000001,277.2002567999999 297.5997424000001,276.4002575999999 298.3997416000001,275.6002583999999 299.1997408000001,274.8002591999999 299.9997400000001,274.0002599999999 300.7997392000001,273.2002607999999 301.5997384000001,272.4002615999999 302.3997376000001,271.6002623999999 303.1997368000001,270.8002631999999 303.9997360000001,270.0002639999999 304.7997352000001,269.2002647999999 305.5997344000001,268.4002655999999 306.3997336000001,267.6002663999999 307.1997328000001,266.8002671999999 307.99973200000005,266.0002679999999 308.79973120000005,265.2002687999999 309.59973040000006,264.4002695999999 310.39972960000006,263.6002703999999 311.19972880000006,262.8002711999999 311.99972800000006,262.0002719999999 312.79972720000006,261.2002727999999 313.59972640000007,260.4002736 314.39972560000007,259.6002743999999 315.19972480000007,258.8002751999999 315.99972400000007,258.000276 316.7997232000001,257.2002768 317.5997224000001,256.4002776 318.3997216000001,255.60027839999998 319.1997208000001,254.80027919999998 319.9997200000001,254.00027999999998 320.7997192000001,253.20028079999997 321.5997184000001,252.40028159999997 322.3997176000001,251.60028239999997 323.1997168000001,250.80028319999997 323.9997160000001,250.00028399999997 324.7997152000001,249.20028479999996 325.5997144000001,248.40028559999996 326.3997136000001,247.60028639999996 327.1997128000001,246.80028719999996 327.9997120000001,246.00028799999995 328.7997112000001,245.20028879999995 329.59971040000005,244.40028959999995 330.39970960000005,243.60029039999995 331.19970880000005,242.80029119999995 331.99970800000006,242.00029199999994 332.79970720000006,241.20029279999994 333.59970640000006,240.40029359999994 334.39970560000006,239.60029439999994 335.19970480000006,238.80029519999994 335.99970400000007,238.00029599999993 336.7997032,237.20029679999993 337.5997024,236.40029759999993 338.3997016,235.60029839999993 339.1997008,234.80029919999993 339.9997,234.00029999999992 340.7996992,233.20030080000004 341.5996984,232.40030160000003 342.39969759999997,231.60030240000003 343.19969679999997,230.80030320000003 343.999696,230.00030400000003 344.7996952,229.20030480000003 345.5996944,228.40030560000002 346.3996936,227.60030640000002 347.1996928,226.80030720000002 347.999692,226.00030800000002 348.7996912,225.20030880000002 349.5996904,224.4003096 350.39968959999993,223.60031040000007 351.19968879999993,222.80031120000007 351.99968799999994,222.00031200000006 352.79968719999994,221.20031280000006 353.59968639999994,220.40031360000006 354.3996855999999,219.60031440000012 355.1996847999999,218.8003152000001 355.9996839999999,218.0003160000001 356.7996831999999,217.2003168000001 357.5996823999999,216.4003176000001 358.3996815999999,215.6003184000001 359.1996807999999,214.8003192000001 359.9996799999999,214.0003200000001 360.7996791999999,213.2003208000001 361.5996783999999,212.4003216000001 362.3996775999999,211.6003224000001 363.19967679999985,210.80032320000015 363.99967599999985,210.00032400000015 364.79967519999985,209.20032480000015 365.59967439999986,208.40032560000014 366.39967359999986,207.60032640000014 367.1996727999998,206.8003272000002 367.9996719999998,206.0003280000002 368.7996711999998,205.2003288000002 369.5996703999998,204.4003296000002 370.3996695999998,203.6003304000002 371.1996687999998,202.8003312000002 371.9996679999998,202.00033200000018 372.7996671999998,201.20033280000018 373.5996663999998,200.40033360000018 374.3996655999998,199.60033440000018 375.1996647999998,198.80033520000018 375.99966399999977,198.00033600000023 376.79966319999977,197.20033680000023 377.5996623999998,196.40033760000023 378.3996615999998,195.60033840000023 379.1996607999998,194.80033920000022 379.9996599999997,194.00034000000028 380.7996591999997,193.20034080000028 381.5996583999997,192.40034160000027 382.3996575999997,191.60034240000027 383.19965679999973,190.80034320000027 383.99965599999973,190.00034400000027 384.79965519999973,189.20034480000027 385.59965439999974,188.40034560000026 386.39965359999974,187.60034640000026 387.19965279999974,186.80034720000026 387.99965199999974,186.00034800000026 388.7996511999997,185.2003488000003 389.5996503999997,184.4003496000003 390.3996495999997,183.6003504000003 391.1996487999997,182.8003512000003 391.9996479999997,182.0003520000003 392.79964719999964,181.20035280000036 393.59964639999964,180.40035360000036 394.39964559999964,179.60035440000036 395.19964479999965,178.80035520000035 395.99964399999965,178.00035600000035 396.79964319999965,177.20035680000035 397.59964239999965,176.40035760000035 398.39964159999965,175.60035840000035 399.19964079999966,174.80035920000034 399.99963999999966,174.00036000000034 400.79963919999966,173.20036080000034 401.5996383999996,172.4003616000004 402.3996375999996,171.6003624000004 403.1996367999996,170.8003632000004 403.9996359999996,170.0003640000004 404.7996351999996,169.2003648000004 405.59963439999956,168.40036560000044 406.39963359999956,167.60036640000044 407.19963279999956,166.80036720000044 407.99963199999956,166.00036800000044 408.79963119999957,165.20036880000043 409.59963039999957,164.40036960000043 410.39962959999957,163.60037040000043 411.1996287999996,162.80037120000043 411.9996279999996,162.00037200000043 412.7996271999996,161.20037280000042 413.5996263999996,160.40037360000042 414.3996255999995,159.60037440000048 415.1996247999995,158.80037520000047 415.9996239999995,158.00037600000047 416.79962319999953,157.20037680000047 417.59962239999953,156.40037760000047 418.3996215999995,155.60037840000052 419.1996207999995,154.80037920000052 419.9996199999995,154.00038000000052 420.7996191999995,153.20038080000052 421.5996183999995,152.40038160000051 422.3996175999995,151.6003824000005 423.1996167999995,150.8003832000005 423.9996159999995,150.0003840000005 424.7996151999995,149.2003848000005 425.5996143999995,148.4003856000005 426.3996135999995,147.6003864000005 427.19961279999944,146.80038720000056 427.99961199999944,146.00038800000056 428.79961119999945,145.20038880000055 429.59961039999945,144.40038960000055 430.39960959999945,143.60039040000055 431.1996087999994,142.8003912000006 431.9996079999994,142.0003920000006 432.7996071999994,141.2003928000006 433.5996063999994,140.4003936000006 434.3996055999994,139.6003944000006 435.1996047999994,138.8003952000006 435.9996039999994,138.0003960000006 436.7996031999994,137.2003968000006 437.5996023999994,136.4003976000006 438.3996015999994,135.60039840000059 439.1996007999994,134.80039920000064 439.99959999999936,134.00040000000064 440.79959919999936,133.20040080000058 441.59959839999937,132.40040160000063 442.39959759999937,131.6004024000007 443.19959679999937,130.80040320000063 443.9995959999993,130.00040400000063 444.7995951999993,129.20040480000068 445.5995943999993,128.40040560000068 446.3995935999993,127.60040640000068 447.1995927999993,126.80040720000068 447.9995919999993,126.00040800000068 448.7995911999993,125.20040880000067 449.59959039999933,124.40040960000067 450.39958959999933,123.60041040000067 451.19958879999933,122.80041120000067 451.99958799999933,122.00041200000072 452.7995871999993,121.20041280000072 453.5995863999993,120.40041360000066 454.3995855999993,119.60041440000072 455.1995847999993,118.80041520000077 455.9995839999993,118.00041600000071 456.79958319999923,117.20041680000071 457.59958239999924,116.40041760000076 458.39958159999924,115.60041840000076 459.19958079999924,114.80041920000076 459.99957999999924,114.00042000000076 460.79957919999924,113.20042080000076 461.59957839999925,112.40042160000075 462.39957759999925,111.60042240000075 463.19957679999925,110.80042320000075 463.99957599999925,110.00042400000075 464.79957519999925,109.2004248000008 465.5995743999992,108.4004256000008 466.3995735999992,107.60042640000074 467.1995727999992,106.8004272000008 467.9995719999992,106.00042800000085 468.7995711999992,105.2004288000008 469.59957039999915,104.40042960000079 470.39956959999915,103.60043040000085 471.19956879999916,102.80043120000084 471.99956799999916,102.00043200000084 472.79956719999916,101.20043280000084 473.5995663999992,100.40043360000078 474.3995655999992,99.60043440000078 475.1995647999992,98.80043520000078 475.9995639999993,98.00043600000072 476.7995631999993,97.20043680000072 477.5995623999993,96.40043760000071 478.3995615999993,95.60043840000071 479.1995607999993,94.80043920000071 479.99955999999935,94.00044000000065 480.79955919999935,93.20044080000065 481.59955839999935,92.40044160000065 482.3995575999994,91.60044240000059 483.1995567999994,90.80044320000059 483.9995559999994,90.00044400000058 484.7995551999994,89.20044480000058 485.5995543999994,88.40044560000058 486.3995535999995,87.60044640000052 487.1995527999995,86.80044720000052 487.9995519999995,86.00044800000052 488.79955119999954,85.20044880000046 489.59955039999954,84.40044960000046 490.39954959999955,83.60045040000045 491.19954879999955,82.80045120000045 491.99954799999955,82.00045200000045 492.7995471999996,81.20045280000039 493.5995463999996,80.40045360000039 494.3995455999996,79.60045440000039 495.19954479999967,78.80045520000033 495.9995439999997,78.00045600000033 496.7995431999997,77.20045680000032 497.5995423999997,76.40045760000032 498.3995415999997,75.60045840000032 498.4,75.60000000000002 " stroke-width="5" stroke="blue" fill="none"></path><path d="M 47.76403245742829 536.5880108191428 L 27.05994590428618 546.9400540957138 L 37.41198918085724 526.2359675425718 L 40 534 z" stroke-width="1" stroke="blue" fill="blue"></path><path d="M 490.6359675425717 73.01198918085726 L 511.3400540957138 62.659945904286204 L 500.98801081914274 83.36403245742832 L 498.4 75.60000000000002 z" stroke-width="1" stroke="blue" fill="blue"></path></svg>
