<?xml version="1.0" encoding="UTF-8" standalone="no"?><svg xmlns="http://www.w3.org/2000/svg" xmlns:xlink="http://www.w3.org/1999/xlink" contentScriptType="application/ecmascript" contentStyleType="text/css" height="699px" preserveAspectRatio="none" style="width:714px;height:699px;" version="1.1" viewBox="0 0 714 699" width="714px" zoomAndPan="magnify"><defs><filter height="300%" id="f18bfuku51r7y0" width="300%" x="-1" y="-1"><feGaussianBlur result="blurOut" stdDeviation="2.0"/><feColorMatrix in="blurOut" result="blurOut2" type="matrix" values="0 0 0 0 0 0 0 0 0 0 0 0 0 0 0 0 0 0 .4 0"/><feOffset dx="4.0" dy="4.0" in="blurOut2" result="blurOut3"/><feBlend in="SourceGraphic" in2="blurOut3" mode="normal"/></filter></defs><g><ellipse cx="430.5" cy="18" fill="#000000" filter="url(#f18bfuku51r7y0)" rx="10" ry="10" style="stroke: none; stroke-width: 1.0;"/><rect fill="#FEFECE" filter="url(#f18bfuku51r7y0)" height="50" rx="12.5" ry="12.5" style="stroke: #A80036; stroke-width: 1.5;" width="57" x="402" y="88"/><line style="stroke: #A80036; stroke-width: 1.5;" x1="402" x2="459" y1="114.4883" y2="114.4883"/><text fill="#000000" font-family="sans-serif" font-size="14" lengthAdjust="spacingAndGlyphs" textLength="37" x="412" y="106.5352">email</text><rect fill="#FEFECE" filter="url(#f18bfuku51r7y0)" height="50" rx="12.5" ry="12.5" style="stroke: #A80036; stroke-width: 1.5;" width="86" x="494.5" y="88"/><line style="stroke: #A80036; stroke-width: 1.5;" x1="494.5" x2="580.5" y1="114.4883" y2="114.4883"/><text fill="#000000" font-family="sans-serif" font-size="14" lengthAdjust="spacingAndGlyphs" textLength="66" x="504.5" y="106.5352">password</text><rect fill="#FEFECE" filter="url(#f18bfuku51r7y0)" height="50" rx="12.5" ry="12.5" style="stroke: #A80036; stroke-width: 1.5;" width="185" x="182" y="88"/><line style="stroke: #A80036; stroke-width: 1.5;" x1="182" x2="367" y1="114.4883" y2="114.4883"/><text fill="#000000" font-family="sans-serif" font-size="14" lengthAdjust="spacingAndGlyphs" textLength="165" x="192" y="106.5352">authorizationRequested</text><rect fill="#FEFECE" filter="url(#f18bfuku51r7y0)" height="50" rx="12.5" ry="12.5" style="stroke: #A80036; stroke-width: 1.5;" width="171" x="48" y="198"/><line style="stroke: #A80036; stroke-width: 1.5;" x1="48" x2="219" y1="224.4883" y2="224.4883"/><text fill="#000000" font-family="sans-serif" font-size="14" lengthAdjust="spacingAndGlyphs" textLength="151" x="58" y="216.5352">selectedAccountIndex</text><rect fill="#FEFECE" filter="url(#f18bfuku51r7y0)" height="50" rx="12.5" ry="12.5" style="stroke: #A80036; stroke-width: 1.5;" width="137" x="565" y="198"/><line style="stroke: #A80036; stroke-width: 1.5;" x1="565" x2="702" y1="224.4883" y2="224.4883"/><text fill="#000000" font-family="sans-serif" font-size="14" lengthAdjust="spacingAndGlyphs" textLength="117" x="575" y="216.5352">portfolioSelected</text><rect fill="#FEFECE" filter="url(#f18bfuku51r7y0)" height="50" rx="12.5" ry="12.5" style="stroke: #A80036; stroke-width: 1.5;" width="113" x="362" y="198"/><line style="stroke: #A80036; stroke-width: 1.5;" x1="362" x2="475" y1="224.4883" y2="224.4883"/><text fill="#000000" font-family="sans-serif" font-size="14" lengthAdjust="spacingAndGlyphs" textLength="93" x="372" y="216.5352">authorization</text><rect fill="#FEFECE" filter="url(#f18bfuku51r7y0)" height="50" rx="12.5" ry="12.5" style="stroke: #A80036; stroke-width: 1.5;" width="50" x="260.5" y="308"/><line style="stroke: #A80036; stroke-width: 1.5;" x1="260.5" x2="310.5" y1="334.4883" y2="334.4883"/><text fill="#000000" font-family="sans-serif" font-size="14" lengthAdjust="spacingAndGlyphs" textLength="30" x="270.5" y="326.5352">user</text><rect fill="#FEFECE" filter="url(#f18bfuku51r7y0)" height="50" rx="12.5" ry="12.5" style="stroke: #A80036; stroke-width: 1.5;" width="103" x="355" y="308"/><line style="stroke: #A80036; stroke-width: 1.5;" x1="355" x2="458" y1="334.4883" y2="334.4883"/><text fill="#000000" font-family="sans-serif" font-size="14" lengthAdjust="spacingAndGlyphs" textLength="83" x="365" y="326.5352">failedLogins</text><rect fill="#FEFECE" filter="url(#f18bfuku51r7y0)" height="50" rx="12.5" ry="12.5" style="stroke: #A80036; stroke-width: 1.5;" width="87" x="493" y="308"/><line style="stroke: #A80036; stroke-width: 1.5;" x1="493" x2="580" y1="334.4883" y2="334.4883"/><text fill="#000000" font-family="sans-serif" font-size="14" lengthAdjust="spacingAndGlyphs" textLength="67" x="503" y="326.5352">portfolios</text><rect fill="#FEFECE" filter="url(#f18bfuku51r7y0)" height="50" rx="12.5" ry="12.5" style="stroke: #A80036; stroke-width: 1.5;" width="118" x="525.5" y="418"/><line style="stroke: #A80036; stroke-width: 1.5;" x1="525.5" x2="643.5" y1="444.4883" y2="444.4883"/><text fill="#000000" font-family="sans-serif" font-size="14" lengthAdjust="spacingAndGlyphs" textLength="98" x="535.5" y="436.5352">activePortfolio</text><rect fill="#FEFECE" filter="url(#f18bfuku51r7y0)" height="50" rx="12.5" ry="12.5" style="stroke: #A80036; stroke-width: 1.5;" width="146" x="511.5" y="528"/><line style="stroke: #A80036; stroke-width: 1.5;" x1="511.5" x2="657.5" y1="554.4883" y2="554.4883"/><text fill="#000000" font-family="sans-serif" font-size="14" lengthAdjust="spacingAndGlyphs" textLength="126" x="521.5" y="546.5352">portfolioSecurities</text><rect fill="#FEFECE" filter="url(#f18bfuku51r7y0)" height="50" rx="12.5" ry="12.5" style="stroke: #A80036; stroke-width: 1.5;" width="81" x="241" y="418"/><line style="stroke: #A80036; stroke-width: 1.5;" x1="241" x2="322" y1="444.4883" y2="444.4883"/><text fill="#000000" font-family="sans-serif" font-size="14" lengthAdjust="spacingAndGlyphs" textLength="61" x="251" y="436.5352">accounts</text><rect fill="#FEFECE" filter="url(#f18bfuku51r7y0)" height="50" rx="12.5" ry="12.5" style="stroke: #A80036; stroke-width: 1.5;" width="115" x="168" y="528"/><line style="stroke: #A80036; stroke-width: 1.5;" x1="168" x2="283" y1="554.4883" y2="554.4883"/><text fill="#000000" font-family="sans-serif" font-size="14" lengthAdjust="spacingAndGlyphs" textLength="95" x="178" y="546.5352">activeAccount</text><rect fill="#FEFECE" filter="url(#f18bfuku51r7y0)" height="50" rx="12.5" ry="12.5" style="stroke: #A80036; stroke-width: 1.5;" width="209" x="6" y="638"/><line style="stroke: #A80036; stroke-width: 1.5;" x1="6" x2="215" y1="664.4883" y2="664.4883"/><text fill="#000000" font-family="sans-serif" font-size="14" lengthAdjust="spacingAndGlyphs" textLength="189" x="16" y="656.5352">activeAccountPerformances</text><rect fill="#FEFECE" filter="url(#f18bfuku51r7y0)" height="50" rx="12.5" ry="12.5" style="stroke: #A80036; stroke-width: 1.5;" width="181" x="250" y="638"/><line style="stroke: #A80036; stroke-width: 1.5;" x1="250" x2="431" y1="664.4883" y2="664.4883"/><text fill="#000000" font-family="sans-serif" font-size="14" lengthAdjust="spacingAndGlyphs" textLength="161" x="260" y="656.5352">activeAccountPortfolios</text><!--link *start to email--><path d="M430.5,28.1667 C430.5,41.0299 430.5,63.7608 430.5,82.4572 " fill="none" id="*start-email" style="stroke: #A80036; stroke-width: 1.0;"/><polygon fill="#A80036" points="430.5,87.612,434.5,78.612,430.5,82.612,426.5,78.612,430.5,87.612" style="stroke: #A80036; stroke-width: 1.0;"/><!--link *start to password--><path d="M438.1952,24.8322 C452.0563,37.1387 481.9525,63.6822 505.3408,84.4474 " fill="none" id="*start-password" style="stroke: #A80036; stroke-width: 1.0;"/><polygon fill="#A80036" points="509.3302,87.9894,505.2558,79.0228,505.5912,84.6697,499.9443,85.0052,509.3302,87.9894" style="stroke: #A80036; stroke-width: 1.0;"/><!--link *start to authorizationRequested--><path d="M421.6658,23.3798 C402.4653,35.0724 355.7899,63.4966 320.1098,85.2248 " fill="none" id="*start-authorizationRequested" style="stroke: #A80036; stroke-width: 1.0;"/><polygon fill="#A80036" points="315.8157,87.8398,325.583,86.5751,320.0862,85.2392,321.4221,79.7424,315.8157,87.8398" style="stroke: #A80036; stroke-width: 1.0;"/><!--link *start to selectedAccountIndex--><path d="M420.5225,19.245 C376.6764,24.9142 201.6329,49.6745 164.5,88 C137.53,115.8362 132.2322,162.1338 132.0079,192.6124 " fill="none" id="*start-selectedAccountIndex" style="stroke: #A80036; stroke-width: 1.0;"/><polygon fill="#A80036" points="132.0167,197.7367,136.001,188.7297,132.008,192.7367,128.001,188.7437,132.0167,197.7367" style="stroke: #A80036; stroke-width: 1.0;"/><!--link *start to portfolioSelected--><path d="M440.6105,19.1143 C469.8197,22.8876 555.0051,37.8894 598.5,88 C623.9304,117.2984 631.2383,162.8074 633.1471,192.757 " fill="none" id="*start-portfolioSelected" style="stroke: #A80036; stroke-width: 1.0;"/><polygon fill="#A80036" points="633.4266,197.7924,636.9213,188.5844,633.1493,192.8001,628.9336,189.0281,633.4266,197.7924" style="stroke: #A80036; stroke-width: 1.0;"/><!--link authorizationRequested to authorization--><path d="M307.5365,138.2362 C329.5803,155.0752 358.5969,177.2407 381.429,194.6819 " fill="none" id="authorizationRequested-authorization" style="stroke: #A80036; stroke-width: 1.0;"/><polygon fill="#A80036" points="385.6172,197.8812,380.8935,189.2391,381.6439,194.8459,376.037,195.5963,385.6172,197.8812" style="stroke: #A80036; stroke-width: 1.0;"/><!--link email to authorization--><path d="M427.747,138.2362 C425.9786,154.4464 423.6717,175.5926 421.8045,192.7087 " fill="none" id="email-authorization" style="stroke: #A80036; stroke-width: 1.0;"/><polygon fill="#A80036" points="421.2402,197.8812,426.1927,189.3681,421.7825,192.9107,418.2399,188.5005,421.2402,197.8812" style="stroke: #A80036; stroke-width: 1.0;"/><!--link password to authorization--><path d="M510.199,138.2362 C492.0579,155.0053 468.2021,177.0569 449.3702,194.4645 " fill="none" id="password-authorization" style="stroke: #A80036; stroke-width: 1.0;"/><polygon fill="#A80036" points="445.674,197.8812,454.9982,194.7094,449.3457,194.4872,449.5678,188.8348,445.674,197.8812" style="stroke: #A80036; stroke-width: 1.0;"/><!--link authorization to user--><path d="M387.9871,248.2362 C365.8945,266.5083 336.2188,291.0522 314.4866,309.0261 " fill="none" id="authorization-user" style="stroke: #A80036; stroke-width: 1.0;"/><polygon fill="#A80036" points="310.5248,312.3028,320.0095,309.6494,314.3778,309.1162,314.911,303.4845,310.5248,312.3028" style="stroke: #A80036; stroke-width: 1.0;"/><!--link authorization to failedLogins--><path d="M415.747,248.2362 C413.9786,264.4464 411.6717,285.5926 409.8045,302.7087 " fill="none" id="authorization-failedLogins" style="stroke: #A80036; stroke-width: 1.0;"/><polygon fill="#A80036" points="409.2402,307.8812,414.1927,299.3681,409.7825,302.9107,406.2399,298.5005,409.2402,307.8812" style="stroke: #A80036; stroke-width: 1.0;"/><!--link authorization to portfolios--><path d="M445.5716,248.2362 C463.5603,265.0053 487.2155,287.0569 505.8892,304.4645 " fill="none" id="authorization-portfolios" style="stroke: #A80036; stroke-width: 1.0;"/><polygon fill="#A80036" points="509.5544,307.8812,505.6986,298.8185,505.897,304.4718,500.2437,304.6702,509.5544,307.8812" style="stroke: #A80036; stroke-width: 1.0;"/><!--link portfolios to activePortfolio--><path d="M547.5122,358.2362 C554.6467,374.5861 563.9724,395.9576 571.4747,413.1504 " fill="none" id="portfolios-activePortfolio" style="stroke: #A80036; stroke-width: 1.0;"/><polygon fill="#A80036" points="573.5391,417.8812,573.6058,408.0326,571.5394,413.2985,566.2735,411.2321,573.5391,417.8812" style="stroke: #A80036; stroke-width: 1.0;"/><!--link portfolioSelected to activePortfolio--><path d="M627.8791,248.2368 C618.8021,288.9905 600.9528,369.1305 591.2189,412.8334 " fill="none" id="portfolioSelected-activePortfolio" style="stroke: #A80036; stroke-width: 1.0;"/><polygon fill="#A80036" points="590.1306,417.7196,595.9917,409.8046,591.2177,412.8392,588.1831,408.0652,590.1306,417.7196" style="stroke: #A80036; stroke-width: 1.0;"/><!--link activePortfolio to portfolioSecurities--><path d="M584.5,468.2362 C584.5,484.4464 584.5,505.5926 584.5,522.7087 " fill="none" id="activePortfolio-portfolioSecurities" style="stroke: #A80036; stroke-width: 1.0;"/><polygon fill="#A80036" points="584.5,527.8812,588.5,518.8812,584.5,522.8812,580.5,518.8812,584.5,527.8812" style="stroke: #A80036; stroke-width: 1.0;"/><!--link user to accounts--><path d="M284.5823,358.2362 C283.9929,374.4464 283.2239,395.5926 282.6015,412.7087 " fill="none" id="user-accounts" style="stroke: #A80036; stroke-width: 1.0;"/><polygon fill="#A80036" points="282.4134,417.8812,286.7379,409.0325,282.5951,412.8845,278.7431,408.7418,282.4134,417.8812" style="stroke: #A80036; stroke-width: 1.0;"/><!--link selectedAccountIndex to activeAccount--><path d="M140.4905,248.0745 C157.1646,307.884 199.2145,458.7151 217.167,523.1099 " fill="none" id="selectedAccountIndex-activeAccount" style="stroke: #A80036; stroke-width: 1.0;"/><polygon fill="#A80036" points="218.5202,527.9637,219.9564,518.2201,217.1775,523.1474,212.2502,520.3685,218.5202,527.9637" style="stroke: #A80036; stroke-width: 1.0;"/><!--link accounts to activeAccount--><path d="M268.6525,468.2362 C260.3289,484.5861 249.4489,505.9576 240.6962,523.1504 " fill="none" id="accounts-activeAccount" style="stroke: #A80036; stroke-width: 1.0;"/><polygon fill="#A80036" points="238.2877,527.8812,245.9355,521.6755,240.5561,523.4254,238.8062,518.046,238.2877,527.8812" style="stroke: #A80036; stroke-width: 1.0;"/><!--link activeAccount to activeAccountPerformances--><path d="M199.1167,578.2362 C181.7314,594.8656 158.9153,616.6897 140.7885,634.0284 " fill="none" id="activeAccount-activeAccountPerformances" style="stroke: #A80036; stroke-width: 1.0;"/><polygon fill="#A80036" points="136.7606,637.8812,146.0293,634.5508,140.3738,634.4251,140.4995,628.7697,136.7606,637.8812" style="stroke: #A80036; stroke-width: 1.0;"/><!--link activeAccount to activeAccountPortfolios--><path d="M251.8833,578.2362 C269.2686,594.8656 292.0847,616.6897 310.2115,634.0284 " fill="none" id="activeAccount-activeAccountPortfolios" style="stroke: #A80036; stroke-width: 1.0;"/><polygon fill="#A80036" points="314.2394,637.8812,310.5005,628.7697,310.6262,634.4251,304.9707,634.5508,314.2394,637.8812" style="stroke: #A80036; stroke-width: 1.0;"/><!--
@startuml

[*] - -> email
[*] - -> password
[*] - -> authorizationRequested
[*] - -> selectedAccountIndex
[*] - -> portfolioSelected

authorizationRequested - -> authorization
email - -> authorization
password - -> authorization
authorization - -> user
authorization - -> failedLogins
authorization - -> portfolios
portfolios - -> activePortfolio
portfolioSelected - -> activePortfolio
activePortfolio - -> portfolioSecurities
user - -> accounts

selectedAccountIndex - -> activeAccount
accounts - -> activeAccount
activeAccount - -> activeAccountPerformances
activeAccount - -> activeAccountPortfolios

@enduml

PlantUML version 1.2017.19(Sun Nov 12 03:46:22 PST 2017)
(GPL source distribution)
Java Runtime: Java(TM) SE Runtime Environment
JVM: Java HotSpot(TM) 64-Bit Server VM
Java Version: 1.8.0_121-b13
Operating System: Mac OS X
OS Version: 10.13.3
Default Encoding: UTF-8
Language: en
Country: US
--></g></svg>